<?xml version="1.0" encoding="UTF-8"?>
<svg version="1.1" xmlns="http://www.w3.org/2000/svg" width="945" height="264">
<path d="M0 0 C6.54876654 7.38835199 10.79824065 15.31872523 14.88745117 24.22827148 C17.52749975 29.94365145 20.39552393 35.46142532 23.5 40.9375 C26.92709621 46.99157943 30.17619102 53.08750392 33.24267578 59.33154297 C36.8560595 66.66538707 40.67367825 73.89183735 44.48974609 81.12182617 C44.98684082 82.06775635 45.48393555 83.01368652 45.99609375 83.98828125 C46.44267334 84.83430908 46.88925293 85.68033691 47.34936523 86.55200195 C48.4375 88.75 48.4375 88.75 49.4375 91.75 C37.75989487 91.19223879 26.21689741 90.01410495 14.61572266 88.59326172 C11.78212332 88.2462803 8.94779757 87.90580805 6.11328125 87.56640625 C4.29162209 87.34672353 2.47000582 87.12668468 0.6484375 86.90625 C-0.18910065 86.80517944 -1.02663879 86.70410889 -1.88955688 86.59997559 C-3.43209909 86.41067084 -4.97393911 86.2155091 -6.51483154 86.01321411 C-8.33716288 85.77896558 -10.16430034 85.58281793 -11.99169922 85.39208984 C-14.5625 84.75 -14.5625 84.75 -15.97460938 83.25048828 C-16.28205078 82.61353027 -16.58949219 81.97657227 -16.90625 81.3203125 C-17.26275635 80.61189209 -17.6192627 79.90347168 -17.98657227 79.17358398 C-18.34162842 78.41505127 -18.69668457 77.65651855 -19.0625 76.875 C-19.83143975 75.32652905 -20.60097245 73.77835241 -21.37109375 72.23046875 C-21.74089355 71.46911621 -22.11069336 70.70776367 -22.49169922 69.92333984 C-23.95140234 66.96066835 -25.5268347 64.07779894 -27.125 61.1875 C-27.60066406 60.31996094 -28.07632813 59.45242187 -28.56640625 58.55859375 C-28.89511719 57.96175781 -29.22382813 57.36492187 -29.5625 56.75 C-33.35908373 62.44487559 -36.44994289 68.35627517 -39.44335938 74.49804688 C-42.3068496 80.34749839 -45.42658302 86.042967 -48.5625 91.75 C-55.80329923 105.05659113 -62.93720388 118.40840448 -69.875 131.875 C-74.9002812 141.62604232 -80.10721261 151.23443634 -85.5625 160.75 C-89.59815346 167.8444617 -93.15956372 175.08020078 -96.59741211 182.4765625 C-100.13362481 190.04847688 -104.05465541 197.32126846 -108.4375 204.4375 C-111.48550708 209.44551164 -114.06559505 214.64669331 -116.65380859 219.90112305 C-119.13955945 224.94076883 -121.76932884 229.87333062 -124.5625 234.75 C-132.27711211 233.51148029 -139.65178762 231.70168204 -147.125 229.4375 C-149.2197664 228.81414334 -151.31482202 228.19175781 -153.41015625 227.5703125 C-154.44027832 227.26383789 -155.47040039 226.95736328 -156.53173828 226.64160156 C-161.02917383 225.31852805 -165.54321806 224.05857988 -170.0625 222.8125 C-170.82763916 222.60133545 -171.59277832 222.3901709 -172.38110352 222.17260742 C-174.10786227 221.69704703 -175.83511638 221.22328566 -177.5625 220.75 C-176.13202842 217.00715377 -174.46129216 213.47633347 -172.62109375 209.91796875 C-172.04182129 208.79753174 -171.46254883 207.67709473 -170.86572266 206.52270508 C-170.24403194 205.3275239 -169.62212 204.13245778 -169 202.9375 C-168.68536804 202.33118744 -168.37073608 201.72487488 -168.04656982 201.10018921 C-164.03956756 193.38208835 -159.93766967 185.73294594 -155.61279297 178.1875 C-152.77060756 173.20074445 -150.18952842 168.10929709 -147.65087891 162.96264648 C-142.23341303 151.99554886 -136.57676424 141.14370248 -130.4375 130.5625 C-127.30796067 125.15465604 -124.46021775 119.6637449 -121.70263672 114.06176758 C-119.07880557 108.74224563 -116.34135503 103.49003616 -113.5625 98.25 C-110.56711292 92.59856025 -107.63457462 86.92732557 -104.8125 81.1875 C-100.13762252 71.71189235 -95.04994962 62.45610621 -90.0234375 53.1640625 C-85.87504871 45.49101751 -81.81211787 37.77447862 -77.765625 30.04736328 C-74.79109613 24.36751006 -71.81111894 18.69061243 -68.8125 13.0234375 C-67.45459728 10.45586977 -66.12332899 7.88146091 -64.8125 5.2890625 C-59.62756395 -4.78375598 -53.10480356 -8.5494363 -42.5625 -12.25 C-26.54649818 -16.40229677 -11.83322394 -10.39014785 0 0 Z " fill="#345999" transform="translate(275.5625,15.25)"/>
<path d="M0 0 C0.76699219 0.39058594 1.53398438 0.78117188 2.32421875 1.18359375 C3.06027344 1.52261719 3.79632813 1.86164062 4.5546875 2.2109375 C13.48669685 6.91993305 16.76845233 16.95408077 21.01171875 25.5949707 C23.78809308 31.21725871 26.77522212 36.70513232 29.82421875 42.18359375 C33.47096187 48.74114274 36.95285279 55.34106736 40.25244141 62.07910156 C44.28970638 70.25275617 48.76964997 78.19038026 53.21435547 86.14746094 C53.58061035 86.81938477 53.94686523 87.49130859 54.32421875 88.18359375 C54.7227002 88.8065332 55.12118164 89.42947266 55.53173828 90.07128906 C56.97710137 93.92380952 55.77367955 97.18163003 54.14428711 100.81396484 C53.65581299 101.68617676 53.16733887 102.55838867 52.6640625 103.45703125 C51.85026123 104.92994629 51.85026123 104.92994629 51.02001953 106.43261719 C50.43978027 107.46418945 49.85954102 108.49576172 49.26171875 109.55859375 C48.06823841 111.71630199 46.87683262 113.87515901 45.6875 116.03515625 C45.10822754 117.08606445 44.52895508 118.13697266 43.93212891 119.21972656 C41.83899233 123.07801354 39.87334007 126.98897293 37.94921875 130.93359375 C34.71236205 137.546673 31.14056858 143.88661653 27.32421875 150.18359375 C23.73145956 146.99003003 21.61015667 143.4111897 19.44921875 139.18359375 C19.09972168 138.51424805 18.75022461 137.84490234 18.39013672 137.15527344 C15.8686554 132.30635974 13.43225718 127.41561176 11.00390625 122.51953125 C4.4728129 109.54847608 -2.49092163 96.81537744 -9.58007812 84.14306641 C-11.11960041 81.38990111 -12.65236683 78.63320679 -14.17578125 75.87109375 C-14.61921875 75.07058594 -15.06265625 74.27007812 -15.51953125 73.4453125 C-16.73191183 71.07379778 -17.7251106 68.6703017 -18.67578125 66.18359375 C-20.89784215 69.0025294 -22.63675058 71.83341726 -24.26953125 75.02734375 C-24.74261719 75.94386719 -25.21570313 76.86039062 -25.703125 77.8046875 C-26.43208984 79.22974609 -26.43208984 79.22974609 -27.17578125 80.68359375 C-28.14112725 82.57075555 -29.10976274 84.45623909 -30.08203125 86.33984375 C-30.50806641 87.17322266 -30.93410156 88.00660156 -31.37304688 88.86523438 C-32.01790039 90.01282227 -32.01790039 90.01282227 -32.67578125 91.18359375 C-33.03349609 91.91433105 -33.39121094 92.64506836 -33.75976562 93.39794922 C-36.93362102 96.35584656 -40.72777677 96.20759516 -44.92578125 96.59765625 C-46.31676025 96.74852188 -46.31676025 96.74852188 -47.73583984 96.9024353 C-50.71431436 97.22148188 -53.694662 97.51540053 -56.67578125 97.80859375 C-58.62126829 98.01266582 -60.56658395 98.21837872 -62.51171875 98.42578125 C-67.29198512 98.93174608 -72.0740393 99.41767431 -76.85693359 99.89807129 C-81.44379222 100.36267645 -86.02852778 100.84715983 -90.61328125 101.33203125 C-91.43070801 101.41828766 -92.24813477 101.50454407 -93.09033203 101.59341431 C-94.9521726 101.78991202 -96.81398101 101.98671435 -98.67578125 102.18359375 C-97.07481424 98.07473591 -95.16086643 94.23746519 -93.05078125 90.37109375 C-90.31926409 85.30752301 -87.66251624 80.21684363 -85.11328125 75.05859375 C-76.73543218 58.1676305 -68.02883219 41.42186446 -59.11328125 24.80859375 C-58.64954102 23.93058105 -58.18580078 23.05256836 -57.70800781 22.14794922 C-46.55910395 1.58181411 -22.6157787 -10.00912717 0 0 Z " fill="#345999" transform="translate(102.67578125,5.81640625)"/>
<path d="M0 0 C1.69219796 -0.01648087 3.3843286 -0.04366597 5.07617188 -0.08203125 C15.26525661 -0.31140284 23.53294066 -0.21356508 32.49438477 5.35009766 C32.49438477 6.01009766 32.49438477 6.67009766 32.49438477 7.35009766 C33.40124023 7.70974609 33.40124023 7.70974609 34.32641602 8.07666016 C36.96920021 9.62899826 37.76375966 11.03200203 39.18188477 13.72509766 C39.59825195 14.49595703 40.01461914 15.26681641 40.44360352 16.06103516 C42.65419485 20.87667278 42.65364784 25.49365284 42.67138672 30.72363281 C42.67795792 31.5664682 42.68452911 32.40930359 42.69129944 33.27767944 C42.71099557 36.06484066 42.72268853 38.85194801 42.73266602 41.63916016 C42.73674154 42.59387585 42.74081707 43.54859154 42.7450161 44.53223801 C42.76586387 49.58822156 42.78016965 54.6441781 42.78955078 59.70019531 C42.80059599 64.90522623 42.83497789 70.10982741 42.87472248 75.3147068 C42.90095507 79.33149981 42.90924864 83.34819159 42.91283226 87.36506271 C42.91768319 89.28267688 42.92925424 91.20028698 42.94787025 93.11781693 C43.05187734 104.54366597 43.00193893 113.72134153 36.36938477 123.47509766 C35.75063477 124.09384766 35.13188477 124.71259766 34.49438477 125.35009766 C33.83438477 125.35009766 33.17438477 125.35009766 32.49438477 125.35009766 C32.49438477 126.01009766 32.49438477 126.67009766 32.49438477 127.35009766 C31.10160459 128.00248924 29.70499265 128.64670318 28.30688477 129.28759766 C27.52958008 129.64724609 26.75227539 130.00689453 25.95141602 130.37744141 C19.20870013 133.04665644 12.07389465 132.57115408 4.93969727 132.59033203 C2.76482435 132.60000673 0.59091018 132.63105241 -1.58374023 132.66259766 C-11.77015871 132.74014846 -20.26815788 131.90262055 -28.50561523 125.35009766 C-35.12904229 118.41860422 -36.9582318 112.42434835 -36.92553711 103.16113281 C-36.93400665 102.2674852 -36.9424762 101.37383759 -36.95120239 100.45310974 C-36.97449674 97.51497958 -36.97559632 94.57737547 -36.97436523 91.63916016 C-36.98147154 89.58564039 -36.98917122 87.5321226 -36.99743652 85.47860718 C-37.01086411 81.17985512 -37.01245789 76.88128666 -37.0065918 72.58251953 C-37.00069846 67.0892204 -37.03128065 61.59680589 -37.07170868 56.10367775 C-37.09763022 51.86385397 -37.10045901 47.62424191 -37.09681702 43.38434982 C-37.09850419 41.35985466 -37.10810772 39.3353493 -37.1259613 37.31093216 C-37.14823857 34.47264619 -37.13840478 31.63613442 -37.12084961 28.79785156 C-37.13411285 27.97158768 -37.1473761 27.14532379 -37.16104126 26.29402161 C-37.052539 18.69735223 -33.96985347 13.26827451 -29.13061523 7.53759766 C-20.00522632 -0.06689311 -11.34523527 0.08073348 0 0 Z M-18.50561523 24.35009766 C-19.00065107 27.27905375 -19.19153831 29.62594209 -19.15258789 32.54931641 C-19.16134949 33.361315 -19.17011108 34.1733136 -19.17913818 35.00991821 C-19.20109358 37.68635954 -19.18659402 40.36114038 -19.16967773 43.03759766 C-19.173047 44.90177731 -19.17790054 46.76595481 -19.18417358 48.63012695 C-19.19153966 52.53406726 -19.18084807 56.43743494 -19.1574707 60.34130859 C-19.12898293 65.34192992 -19.14538835 70.34120951 -19.17533302 75.34178162 C-19.19341326 79.19032881 -19.18764467 83.03855865 -19.17469406 86.88711548 C-19.17136205 88.73068399 -19.17543994 90.57428146 -19.18709183 92.41781616 C-19.19981282 94.9962784 -19.18040818 97.57257755 -19.15258789 100.15087891 C-19.16270905 100.91050934 -19.1728302 101.67013977 -19.18325806 102.45278931 C-19.10466057 106.39091637 -18.63474863 108.18506715 -16.17929077 111.32310486 C-12.68589795 113.97154966 -10.54828533 113.981466 -6.19311523 113.97900391 C-5.5017749 113.98141586 -4.81043457 113.98382782 -4.09814453 113.98631287 C-2.64243815 113.98533722 -1.18669338 113.97201055 0.26879883 113.94702148 C2.48851387 113.91268846 4.70424737 113.92637608 6.92407227 113.94580078 C8.34335993 113.9389018 9.76263738 113.92922892 11.18188477 113.91650391 C13.10581055 113.90018921 13.10581055 113.90018921 15.06860352 113.88354492 C19.04129921 113.2649346 20.70574484 112.20049897 23.49438477 109.35009766 C24.69100293 105.76024315 24.64979054 102.4820895 24.65551758 98.74511719 C24.66048248 97.97242493 24.66544739 97.19973267 24.67056274 96.40362549 C24.68517115 93.84671133 24.69198393 91.2898592 24.69750977 88.73291016 C24.70326203 86.95555622 24.70901975 85.17820229 24.71478271 83.40084839 C24.72528874 79.67347932 24.73113411 75.94613179 24.73461914 72.21875 C24.74010498 67.44485262 24.76413653 62.67124029 24.79259109 57.89743233 C24.81122268 54.22568939 24.81642334 50.55401507 24.81795502 46.88222885 C24.82098058 45.1223787 24.82900587 43.36252972 24.8421402 41.60272598 C24.85921279 39.13955284 24.85731776 36.67707565 24.85083008 34.21386719 C24.86004486 33.48849762 24.86925964 32.76312805 24.87875366 32.01577759 C24.84248919 27.61603783 24.21527139 24.83614949 21.49438477 21.35009766 C16.55223585 18.05533171 10.66018545 18.93914485 4.87084961 18.92456055 C2.63356714 18.91267301 0.39905308 18.86349758 -1.83764648 18.81298828 C-3.26601849 18.80352216 -4.69440738 18.79628803 -6.12280273 18.79150391 C-7.41814941 18.77804932 -8.71349609 18.76459473 -10.0480957 18.75073242 C-14.51416441 19.52493089 -15.73245615 20.80065137 -18.50561523 24.35009766 Z " fill="#385D9B" transform="translate(750.505615234375,64.64990234375)"/>
<path d="M0 0 C2.48264122 0.01389265 4.96152149 -0.02032228 7.44384766 -0.05834961 C16.36200387 -0.10099908 23.41791757 0.30610247 30.98681641 5.57641602 C31.86635986 6.14634277 31.86635986 6.14634277 32.76367188 6.7277832 C37.91855187 10.47306418 40.86890855 16.3840833 41.98681641 22.57641602 C42.11889298 27.24664366 42.0300865 31.90324542 41.98681641 36.57641602 C35.71681641 36.57641602 29.44681641 36.57641602 22.98681641 36.57641602 C22.85660807 33.2886556 22.72639974 30.00089518 22.59619141 26.71313477 C22.28039614 23.58602006 22.28039614 23.58602006 20.40185547 21.9074707 C17.08878644 20.0814646 14.50965231 20.17124066 10.73681641 20.14282227 C10.04168945 20.13758041 9.3465625 20.13233856 8.63037109 20.12693787 C7.16456434 20.12053072 5.69870608 20.12183779 4.23291016 20.13037109 C1.99369654 20.13888984 -0.24297131 20.11009433 -2.48193359 20.07836914 C-3.90901617 20.0767571 -5.33610324 20.07733471 -6.76318359 20.08032227 C-8.70451172 20.07754272 -8.70451172 20.07754272 -10.68505859 20.07470703 C-13.97922374 20.37261674 -13.97922374 20.37261674 -16.43310547 21.921875 C-19.00250256 26.23847799 -18.5828584 30.61627596 -18.54443359 35.54516602 C-18.55017395 37.15385559 -18.55017395 37.15385559 -18.55603027 38.79504395 C-18.55875076 41.06120747 -18.55138012 43.32740232 -18.53466797 45.59350586 C-18.51326153 49.0637813 -18.53446634 52.53198629 -18.56005859 56.00219727 C-18.55741534 58.20402476 -18.55229043 60.40585096 -18.54443359 62.60766602 C-18.55253052 63.64628784 -18.56062744 64.68490967 -18.56896973 65.75500488 C-18.5330815 71.26399829 -18.5330815 71.26399829 -16.41992188 76.23046875 C-13.14520706 78.06182428 -10.72079221 78.07479478 -6.97412109 78.08032227 C-6.29322418 78.0897435 -5.61232727 78.09916473 -4.91079712 78.10887146 C-2.73628684 78.13747076 -0.56286626 78.14060481 1.61181641 78.13891602 C14.11775233 78.16003615 25.02449124 78.22819609 35.07275391 86.60766602 C40.80878966 92.50758851 42.35459089 99.8555835 42.27197266 107.84594727 C41.58731842 114.40174605 38.72566089 120.9692061 33.98681641 125.57641602 C24.99448066 132.44110089 16.15269489 132.86927392 5.17431641 132.77172852 C3.96485352 132.76889862 2.75539063 132.76606873 1.50927734 132.76315308 C-2.33164607 132.75200998 -6.17233134 132.72691585 -10.01318359 132.70141602 C-12.62646146 132.69137865 -15.23974301 132.68225412 -17.85302734 132.67407227 C-24.23983704 132.65208981 -30.62647002 132.61760018 -37.01318359 132.57641602 C-37.01318359 126.30641602 -37.01318359 120.03641602 -37.01318359 113.57641602 C-34.54543457 113.55454224 -34.54543457 113.55454224 -32.02783203 113.53222656 C-25.9297908 113.47429805 -19.83212092 113.39706418 -13.734375 113.31396484 C-11.09413679 113.28068999 -8.453827 113.25266614 -5.81347656 113.22998047 C-2.02035999 113.19648245 1.77209912 113.14416703 5.56494141 113.08813477 C7.33856049 113.07854988 7.33856049 113.07854988 9.14801025 113.06877136 C10.24884949 113.0489772 11.34968872 113.02918304 12.48388672 113.00878906 C13.45207336 112.997686 14.42026001 112.98658295 15.41778564 112.97514343 C18.40938097 112.51083172 19.80105669 111.63899624 21.98681641 109.57641602 C22.61404848 107.64216116 22.61404848 107.64216116 22.48681641 105.57641602 C22.49712891 104.89579102 22.50744141 104.21516602 22.51806641 103.51391602 C21.73922976 100.67345295 20.51537521 100.05140865 17.98681641 98.57641602 C14.63427482 98.10353845 14.63427482 98.10353845 10.87744141 98.13500977 C10.19180115 98.12180191 9.50616089 98.10859406 8.79974365 98.09498596 C6.6120606 98.05420808 4.42479232 98.03247861 2.23681641 98.01391602 C-20.58989852 97.76248691 -20.58989852 97.76248691 -30.63818359 89.38891602 C-37.10067189 81.73596935 -37.61026329 74.02418817 -37.54443359 64.29125977 C-37.5482605 63.03559708 -37.5520874 61.77993439 -37.55603027 60.48622131 C-37.55874199 57.84245578 -37.55347781 55.20018988 -37.53466797 52.55664062 C-37.51185543 49.18863383 -37.52503608 45.82190084 -37.54895782 42.45394039 C-37.56698095 39.21216946 -37.55432118 35.97054739 -37.54443359 32.72875977 C-37.55253052 31.52960434 -37.56062744 30.33044891 -37.56896973 29.09495544 C-37.47421853 20.591603 -36.07344611 14.10492369 -29.88818359 7.82641602 C-21.09638931 -0.0208153 -11.20331992 -0.08747403 0 0 Z " fill="#3C609D" transform="translate(612.01318359375,64.423583984375)"/>
<path d="M0 0 C0.79141891 -0.0066568 1.58283783 -0.0133136 2.39823914 -0.02017212 C4.06649466 -0.03025693 5.73479019 -0.03499044 7.40307617 -0.03466797 C9.93151687 -0.03903195 12.45819666 -0.07536789 14.98632812 -0.11328125 C26.15886855 -0.19175825 34.57108148 0.79826677 43.1328125 8.625 C47.7197683 13.84340686 49.76480726 20.13040477 49.75697327 26.99298096 C49.75903526 28.38956436 49.75903526 28.38956436 49.76113892 29.81436157 C49.755746 31.33566177 49.755746 31.33566177 49.75024414 32.88769531 C49.75039017 33.96117218 49.75053619 35.03464905 49.75068665 36.14065552 C49.74998978 39.69014504 49.74220789 43.23958214 49.734375 46.7890625 C49.73251002 49.24957246 49.73108649 51.7100828 49.73008728 54.17059326 C49.72626842 60.64787826 49.71644347 67.12514085 49.7053833 73.60241699 C49.69515565 80.21150408 49.69058675 86.82059478 49.68554688 93.4296875 C49.67482067 106.39844735 49.65775178 119.36719056 49.63671875 132.3359375 C43.69671875 132.3359375 37.75671875 132.3359375 31.63671875 132.3359375 C31.63085251 131.01906448 31.62498627 129.70219147 31.61894226 128.34541321 C31.56175401 115.94113939 31.48901262 103.53704154 31.40100384 91.13294697 C31.35625746 84.7557177 31.31701057 78.37855296 31.2902832 72.0012207 C31.26429309 65.84788567 31.22392068 59.69479836 31.17353249 53.54161644 C31.15683479 51.19289415 31.14533864 48.84412898 31.13910484 46.49535561 C31.12949557 43.20798333 31.10147327 39.921249 31.0690918 36.6340332 C31.07052689 35.6608313 31.07196198 34.68762939 31.07344055 33.68493652 C30.99785656 28.26683899 30.66733427 24.36655302 26.63671875 20.3359375 C24.22348434 20.22268032 21.83994471 20.17176725 19.42578125 20.16796875 C18.33987198 20.16297615 18.33987198 20.16297615 17.23202515 20.15788269 C15.69700762 20.15281011 14.16197903 20.15047447 12.62695312 20.15063477 C10.27846026 20.14845305 7.9304406 20.13031463 5.58203125 20.11132812 C4.09244953 20.10839331 2.60286557 20.1064091 1.11328125 20.10546875 C0.05846054 20.09469048 0.05846054 20.09469048 -1.01766968 20.08369446 C-4.69622814 20.10091454 -6.21537099 20.23733066 -9.36328125 22.3359375 C-10.29614497 25.13452867 -10.49773561 26.86301893 -10.52149963 29.75883484 C-10.53618286 31.11549255 -10.53618286 31.11549255 -10.55116272 32.4995575 C-10.55691818 33.48930069 -10.56267365 34.47904388 -10.56860352 35.4987793 C-10.58345291 37.06488449 -10.58345291 37.06488449 -10.59860229 38.66262817 C-10.6302371 42.12011432 -10.65498265 45.57761421 -10.6796875 49.03515625 C-10.70025531 51.42983867 -10.72125173 53.82451745 -10.74266052 56.2191925 C-10.79789903 62.52712047 -10.84730051 68.8350813 -10.89550781 75.14306641 C-10.94570981 81.57782929 -11.00140267 88.01254435 -11.05664062 94.44726562 C-11.16424398 107.07678208 -11.26568416 119.70634003 -11.36328125 132.3359375 C-17.30328125 132.3359375 -23.24328125 132.3359375 -29.36328125 132.3359375 C-29.43277946 117.70622357 -29.48629133 103.07654484 -29.51871777 88.44669914 C-29.53417528 81.65353647 -29.55524331 74.86047836 -29.58959961 68.06738281 C-29.6227369 61.51218177 -29.64013289 54.95704859 -29.64791298 48.40176773 C-29.65345775 45.90031346 -29.66428522 43.39886517 -29.68047142 40.89745712 C-29.70223541 37.39488608 -29.70524853 33.89276446 -29.70385742 30.39013672 C-29.71464325 29.35507492 -29.72542908 28.32001312 -29.73654175 27.25358582 C-29.71314125 21.8117263 -29.35837457 18.06347742 -26.36328125 13.3359375 C-25.80640625 12.3253125 -25.24953125 11.3146875 -24.67578125 10.2734375 C-18.47702157 2.39933737 -9.71593772 0.02882739 0 0 Z " fill="#375B9B" transform="translate(882.36328125,64.6640625)"/>
<path d="M0 0 C26.4 0 52.8 0 80 0 C80 6.27 80 12.54 80 19 C69.77 19 59.54 19 49 19 C49 56.29 49 93.58 49 132 C43.06 132 37.12 132 31 132 C31 94.71 31 57.42 31 19 C20.77 19 10.54 19 0 19 C0 12.73 0 6.46 0 0 Z " fill="#395D9C" transform="translate(357,65)"/>
<path d="M0 0 C26.73 0 53.46 0 81 0 C79.33612369 4.15969078 77.51060844 8.13210155 75.5 12.125 C75.15396729 12.81440674 74.80793457 13.50381348 74.45141602 14.21411133 C67.86879308 27.26433239 60.95625154 40.14605694 54 53 C45.09 53 36.18 53 27 53 C25.02 49.04 23.04 45.08 21 41 C19.69160775 38.65259038 18.36257565 36.3163786 17 34 C13.96179753 28.77377079 11.17307769 23.4665199 8.51953125 18.03515625 C6.2456351 13.49320944 3.78139307 9.05991737 1.3203125 4.6171875 C0 2 0 2 0 0 Z " fill="#355A9A" transform="translate(124,13)"/>
<path d="M0 0 C6.27 0 12.54 0 19 0 C19 43.56 19 87.12 19 132 C12.73 132 6.46 132 0 132 C0 88.44 0 44.88 0 0 Z " fill="#3F629F" transform="translate(496,65)"/>
<path d="M0 0 C3 1 3 1 4.55078125 3.68359375 C5.1462228 4.93101372 5.73266012 6.18275184 6.3125 7.4375 C10.01342906 15.14094198 13.99339786 22.67253043 18.0625 30.1875 C18.6397583 31.25476318 19.2170166 32.32202637 19.81176758 33.42163086 C20.38048584 34.47229736 20.9492041 35.52296387 21.53515625 36.60546875 C22.09734863 37.64493652 22.65954102 38.6844043 23.23876953 39.75537109 C24.48348559 42.04845073 25.73424983 44.33747829 26.99169922 46.62353516 C27.63901553 47.80760728 28.28631421 48.99168903 28.93359375 50.17578125 C29.52068115 51.24352783 30.10776855 52.31127441 30.71264648 53.41137695 C32 56 32 56 32 58 C30.71484375 58.3671875 29.4296875 58.734375 28.14453125 59.1015625 C27.3045459 59.34165039 26.46456055 59.58173828 25.59912109 59.82910156 C23.72073617 60.36559489 21.84215094 60.90138734 19.96337891 61.43652344 C15.076207 62.8296072 10.19261248 64.23302965 5.31640625 65.6640625 C-12.3420374 70.82397698 -12.3420374 70.82397698 -21 72 C-22.37216028 69.61298157 -23.72243979 67.21744946 -25.0625 64.8125 C-25.45244141 64.13896484 -25.84238281 63.46542969 -26.24414062 62.77148438 C-28.99504183 57.78091139 -28.99504183 57.78091139 -29.015625 54.5390625 C-27.49380056 50.7345014 -25.63838116 47.16320961 -23.6875 43.5625 C-23.24889648 42.74136719 -22.81029297 41.92023438 -22.35839844 41.07421875 C-20.91418636 38.37808633 -19.45874055 35.6882977 -18 33 C-17.48840332 32.05624512 -16.97680664 31.11249023 -16.44970703 30.14013672 C-13.46512143 24.64133694 -10.46640409 19.1504014 -7.45898438 13.6640625 C-4.96644767 9.11276389 -2.48344725 4.55626294 0 0 Z " fill="#3A5E9C" transform="translate(199,178)"/>
<path d="M0 0 C26.73 0 53.46 0 81 0 C80.34 1.32 79.68 2.64 79 4 C79 3.01 79 2.02 79 1 C41.38 1.495 41.38 1.495 3 2 C2.67 3.32 2.34 4.64 2 6 C1.34 4.02 0.68 2.04 0 0 Z " fill="#627EB0" transform="translate(124,13)"/>
</svg>
